<?xml version="1.0" encoding="UTF-8"?>
<svg id="Layer_1" data-name="Layer 1" xmlns="http://www.w3.org/2000/svg" viewBox="0 0 1080 1080">
  <defs>
    <style>
      .cls-1 {
        fill: #fff;
      }
    </style>
  </defs>
  <path class="cls-1" d="M433.59,441.58c0,14.78-10.62,30.36-31.23,30.36h-37.81v-100.09h27.32c17.76,0,29.06,13.04,29.06,26.51,0,10.62-7.02,17.2-9.44,17.2,9.62,0,22.1,9.93,22.1,26.02ZM384.6,391.41v19.56h8.13c4.78,0,9.44-4.1,9.44-9.93s-4.41-9.62-9.07-9.62h-8.51ZM413.97,440.15c0-5.77-3.97-11.55-13.54-11.55h-15.83v23.72h15.9c6.52,0,13.47-4.47,13.47-12.17Z"/>
  <path class="cls-1" d="M440.55,422.02c0-28.75,23.41-52.22,52.03-52.22s52.1,23.47,52.1,52.22-23.47,51.85-52.16,51.85-51.97-23.35-51.97-51.85ZM524.32,421.9c0-17.51-14.28-31.79-31.79-31.79s-31.67,14.28-31.67,31.79,14.22,31.61,31.67,31.61,31.79-14.22,31.79-31.61Z"/>
  <path class="cls-1" d="M638.95,422.02c0,31.05-19.75,49.92-52.1,49.92h-29.12v-100.03l29.12-.06c32.35-.06,52.1,18.94,52.1,50.17ZM618.65,421.96c0-18.75-12.05-30.18-31.85-30.18h-9v60.11h9.19c19.68,0,31.67-11.3,31.67-29.93Z"/>
  <path class="cls-1" d="M664.42,428.98l-30.98-57.13h22.73l18.26,34.77,18.26-34.77h22.79l-31.05,57.13v42.97h-19.99v-42.97Z"/>
  <path class="cls-1" d="M364.57,535.38c0-28.25,23.78-52.16,51.97-52.16,13.04.19,24.59,5.34,35.08,15.46l-11.61,15.83c-6.83-6.71-15.03-10.8-23.66-10.8-16.08,0-31.42,14.28-31.42,31.79s15.9,31.6,31.36,31.6c9.19,0,17.14-4.91,23.78-11.42l11.55,16.27c-8.82,8.75-19.56,15.34-34.71,15.34-28.87,0-52.34-23.78-52.34-51.91Z"/>
  <path class="cls-1" d="M523.72,571.4h-40.05l-6.4,13.97h-21.73l47.81-102.58h.62l47.87,102.58h-21.79l-6.33-13.97ZM515.9,554.26l-12.17-26.76-12.23,26.76h24.4Z"/>
  <path class="cls-1" d="M581.98,505.08v20.18h34.52v20.06h-34.52v40.17h-20.12v-100.47h60.35v20.06h-40.24Z"/>
  <path class="cls-1" d="M653.64,505.08v19.56h34.52v20.06h-34.52v20.68h40.24v19.99h-60.35v-100.09h60.35v19.81h-40.24Z"/>
  <path class="cls-1" d="M364.54,658.29c0-28.25,23.78-52.16,51.97-52.16,13.04.19,24.59,5.34,35.08,15.46l-11.61,15.83c-6.83-6.71-15.03-10.8-23.66-10.8-16.08,0-31.42,14.28-31.42,31.79s15.9,31.6,31.36,31.6c9.19,0,17.14-4.91,23.78-11.42l11.55,16.27c-8.82,8.75-19.56,15.34-34.71,15.34-28.87,0-52.34-23.78-52.34-51.91Z"/>
  <path class="cls-1" d="M456.28,643.02c0-20.31,16.54-36.89,36.76-36.89s36.8,16.58,36.8,36.89-16.58,36.63-36.85,36.63-36.72-16.49-36.72-36.63ZM509.47,642.92c0-9.07-7.4-16.46-16.46-16.46s-16.4,7.4-16.4,16.46,7.36,16.37,16.4,16.37,16.46-7.36,16.46-16.37Z"/>
  <rect class="cls-1" x="465" y="689.83" width="56.11" height="20.37" rx="10.18" ry="10.18"/>
</svg>